Coordinates
version=1
nRows=54
nColumns=12
inDegrees=yes

Units are S.I. units (second, meters, Newtons, ...)
Angles are in degrees

endheader
time	SC_y	SC_z	SC_x	AC_y	AC_z	AC_x	GH_y	GH_z	GH_yy	EL_x	PS_y
       0.0              -15.13          25.93          41.97          68.37         -11.69          4.721         -150.2         0.6233         -116.7          34.87          62.24
   0.04331              -15.14          25.93          41.97          68.37         -11.69          4.722         -150.2          0.635         -116.7          34.88          62.25
   0.08662              -15.15          25.93          41.96          68.37         -11.69          4.723         -150.1         0.6475         -116.7          34.89          62.25
    0.1299              -15.16          25.93          41.96          68.36         -11.69          4.724         -150.1         0.6608         -116.7           34.9          62.26
    0.1732              -15.16          25.93          41.95          68.36         -11.68          4.725         -150.0         0.6749         -116.6          34.91          62.27
    0.2166              -15.17          25.93          41.95          68.35         -11.68          4.726         -150.0         0.6899         -116.6          34.92          62.27
    0.2599              -15.18          25.93          41.94          68.34         -11.68          4.728         -149.9          0.706         -116.6          34.93          62.28
    0.3032              -15.19          25.93          41.94          68.34         -11.67          4.729         -149.9         0.7232         -116.6          34.94          62.29
    0.3465               -15.2          25.93          41.93          68.33         -11.67          4.731         -149.8         0.7416         -116.5          34.96           62.3
    0.3898              -15.21          25.93          41.92          68.32         -11.67          4.732         -149.8         0.7614         -116.5          34.97          62.31
    0.4331              -15.22          25.93          41.92          68.32         -11.66          4.734         -149.7         0.7826         -116.5          34.99          62.32
    0.4764              -15.23          25.93          41.91          68.31         -11.66          4.735         -149.6         0.8054         -116.5          35.01          62.33
    0.5197              -15.25          25.93           41.9           68.3         -11.65          4.737         -149.5           0.83         -116.4          35.03          62.34
     0.563              -15.26          25.93          41.89          68.29         -11.65          4.739         -149.4         0.8566         -116.4          35.05          62.35
    0.6064              -15.28          25.93          41.88          68.28         -11.64          4.742         -149.3         0.8853         -116.3          35.07          62.37
    0.6497               -15.3          25.93          41.87          68.27         -11.64          4.744         -149.2         0.9165         -116.3          35.09          62.38
     0.693              -15.31          25.93          41.86          68.25         -11.63          4.747         -149.1         0.9504         -116.2          35.12           62.4
    0.7363              -15.33          25.93          41.84          68.24         -11.62           4.75         -149.0         0.9874         -116.2          35.15          62.42
    0.7796              -15.36          25.93          41.83          68.22         -11.61          4.753         -148.9          1.028         -116.1          35.18          62.44
    0.8229              -15.38          25.93          41.82          68.21          -11.6          4.756         -148.7          1.072         -116.1          35.21          62.46
    0.8662              -15.41          25.93           41.8          68.19         -11.59           4.76         -148.5           1.12         -116.0          35.25          62.48
    0.9095              -15.44          25.93          41.78          68.17         -11.58          4.764         -148.4          1.174         -115.9          35.29          62.51
    0.9528              -15.47          25.93          41.76          68.15         -11.57          4.769         -148.2          1.233         -115.8          35.34          62.54
    0.9962               -15.5          25.93          41.74          68.12         -11.56          4.774         -147.9          1.298         -115.8          35.39          62.57
     1.039              -15.54          25.93          41.71           68.1         -11.55          4.779         -147.7          1.371         -115.7          35.44          62.61
     1.083              -15.59          25.93          41.68          68.07         -11.53          4.786         -147.4          1.452         -115.5           35.5          62.64
     1.126              -15.64          25.93          41.65          68.03         -11.51          4.793         -147.1          1.542         -115.4          35.57          62.69
     1.169               -15.7          25.93          41.62          67.99         -11.49          4.801         -146.8          1.644         -115.3          35.65          62.74
     1.213              -15.76          25.94          41.58          67.95         -11.47           4.81         -146.4           1.76         -115.1          35.74           62.8
     1.256              -15.83          25.94          41.53           67.9         -11.44           4.82         -145.9          1.891         -114.9          35.84          62.86
     1.299              -15.91          25.94          41.48          67.85         -11.41          4.832         -145.4           2.04         -114.7          35.95          62.93
     1.343              -16.01          25.94          41.42          67.78         -11.38          4.845         -144.9          2.212         -114.5          36.09          63.02
     1.386              -16.12          25.94          41.35          67.71         -11.34           4.86         -144.2           2.41         -114.2          36.24          63.11
     1.429              -16.24          25.94          41.27          67.62         -11.29          4.878         -143.4           2.64         -113.8          36.41          63.23
     1.473              -16.39          25.94          41.18          67.52         -11.24          4.899         -142.5          2.909         -113.5          36.62          63.36
     1.516              -16.56          25.94          41.07           67.4         -11.18          4.924         -141.4          3.226         -113.0          36.86          63.51
     1.559              -16.77          25.95          40.94          67.26          -11.1          4.953         -140.2          3.604         -112.5          37.15           63.7
     1.603              -17.02          25.95          40.78           67.1         -11.01          4.989         -138.6          4.056         -111.8           37.5          63.92
     1.646              -17.32          25.95          40.59          66.89          -10.9          5.031         -136.8          4.603         -111.1          37.92          64.18
     1.689              -17.69          25.96          40.36          66.64         -10.77          5.083         -134.5          5.271         -110.1          38.43          64.51
     1.732              -18.14          25.96          40.07          66.34         -10.61          5.147         -131.7          6.096         -108.9          39.06          64.91
     1.776               -18.7          25.97          39.72          65.95          -10.4          5.228         -128.3          7.124         -107.5          39.85          65.42
     1.819              -19.41          25.98          39.27          65.47         -10.14          5.328         -123.9           8.42         -105.6          40.85          66.05
     1.862              -20.32          25.99           38.7          64.86         -9.818          5.457         -118.3          10.07         -103.3          42.11          66.85
     1.906              -21.48           26.0          37.97          64.07         -9.399          5.621         -111.2          12.17         -100.3          43.72          67.88
     1.949              -22.96          26.02          37.03          63.06         -8.861          5.831         -102.1          14.88         -96.45           45.8           69.2
     1.992              -24.86          26.05          35.83          61.78         -8.175          6.101          -90.4          18.34         -91.54          48.45          70.89
     2.036              -27.24          26.07          34.33          60.16         -7.312          6.439         -75.73          22.68         -85.37          51.78          73.01
     2.079              -30.15          26.11           32.5          58.18          -6.26          6.851         -57.85          27.98         -77.85          55.84           75.6
     2.122              -33.52          26.15          30.37           55.9         -5.041          7.329         -37.12          34.11         -69.13          60.54           78.6
     2.166              -37.17           26.2          28.07          53.42         -3.721          7.847         -14.67          40.76         -59.68          65.64          81.84
     2.209              -40.82          26.24          25.77          50.95         -2.401          8.364          7.769           47.4         -50.24          70.73          85.09
     2.252              -44.19          26.28          23.64          48.66         -1.182          8.842           28.5          53.54         -41.52          75.44          88.09
     2.295              -47.09          26.32           21.8          46.69        -0.1299          9.254          46.38          58.84          -34.0           79.5          90.67
